<svg xmlns="http://www.w3.org/2000/svg" xmlns:xlink="http://www.w3.org/1999/xlink" version="1.1" viewBox="264.0 480.0 605.0 113.0">

<defs>
<clipPath id="clip_1">
<path transform="matrix(1,0,0,-1,0,1080)" d="M0 0H1080V1080H0Z"/>
</clipPath>
<clipPath id="clip_2">
<path transform="matrix(1,0,0,-1,0,1080)" d="M0 1080H1080V0H0Z"/>
</clipPath>
</defs>
<g>
<g>
<g clip-path="url(#clip_1)">

</g>
<g clip-path="url(#clip_2)">

<path transform="matrix(1,0,0,-1,292.5005,505.2271)" d="M0 0C13.39 0 21.953-6.231 21.926-16.417 21.887-31.051 7.332-37.608-5.715-31.259V-30.352C-5.71-30.352 9.55-34.396 14.35-20.643 14.821-19.292 15.019-17.107 15.021-15.458 15.036-7.655 9.286-2.88-.121-2.88H-9.413V-51.499C-9.326-54.356-6.985-56.648-3.845-56.648H-2.52L-2.503-57.608H-22.452L-22.435-56.648H-21.11C-17.996-56.648-15.648-54.375-15.542-51.536V-6.031C-15.599-3.148-17.964-.959-21.111-.959H-22.436L-22.453 .001Z" fill="#ffffff"/>
<path transform="matrix(1,0,0,-1,347.5103,538.4033)" d="M0 0C2.959-2.486 4.313-6.582 4.346-10.314 4.422-18.881-3.173-25.771-12.647-25.771-18.337-25.771-25.711-24.385-29.209-21.25-29.813-18.695-29.567-13.039-28.255-9.328H-27.148C-27.997-17.978-22.173-23.134-13.703-22.893-5.766-22.667-.909-18.53-.909-12.29-.909-9.301-1.933-6.857-4.407-4.691L-23.612 10.129C-27.187 13.182-28.151 17.172-28.2 20.504-28.315 28.305-21.214 34.521-12.327 34.521-7.93 34.521-4.977 34.13-2.83 33.632H.38L.524 23.188H-.575C-.575 28.508-4.135 31.678-11.669 31.678-18.082 31.678-23.245 27.624-23.208 22.521-23.19 20.052-22.445 17.378-19.434 14.96Z" fill="#ffffff"/>
<path transform="matrix(1,0,0,-1,357.1567,562.8311)" d="M0 0 .019 .96H1.299C4.87 .96 7.752 3.278 7.825 6.159V51.444C7.752 54.327 4.868 56.649 1.294 56.649H.014L-.004 57.609H21.745V56.649H20.452C16.961 56.649 14.11 54.418 13.94 51.615V6.084C14.054 3.238 16.928 .96 20.457 .96H21.737L21.756 0Z" fill="#ffffff"/>
<path transform="matrix(1,0,0,-1,414.062,561.3037)" d="M0 0C13.787 0 24.658 11.04 24.658 27.273 24.658 43.507 13.787 54.548 0 54.548-13.789 54.548-24.66 43.507-24.66 27.273-24.66 11.04-13.789 0 0 0M78.094-9.017C76.073-14.201 59.896-28.507 35.647-18.233 25.442-14.01 11.747-5.081 .39-2.872-17.582-2.872-31.753 9.432-31.753 27.274-31.753 45.116-17.582 57.421 0 57.421 17.58 57.421 31.751 45.116 31.751 27.274 31.751 12.146 21.563 1 7.748-2.008 14.497-4.023 24.562-7.864 36.224-12.473 48.984-17.561 67.25-18.232 77.774-8.632Z" fill="#ffffff"/>
<path transform="matrix(1,0,0,-1,509.8345,505.2251)" d="M0 0V-.96H-1.425C-3.907-.96-5.928-2.683-6.041-5.006V-37.322C-6.041-50.732-15.154-58.951-29.974-58.951-44.8-58.951-53.987-50.787-53.987-37.465V-5.118C-54.037-2.738-56.082-.96-58.604-.96H-60.029V0H-41.807V-.96H-43.229C-45.751-.96-47.799-2.738-47.857-5.118V-36.249C-47.857-48.708-41.091-56.344-30.064-56.344-17.955-56.344-10.518-49.114-10.489-37.317V-5.055C-10.569-2.708-12.604-.961-15.104-.961H-16.528V-.001Z" fill="#ffffff"/>
<path transform="matrix(1,0,0,-1,552.2764,562.8369)" d="M0 0H-39.003L-38.986 .96H-37.667C-34.571 .96-32.242 3.224-32.125 6.058V51.621C-32.125 54.483-34.55 56.649-37.67 56.649H-38.989L-39.006 57.609H-10.96C-7.098 57.636-1.905 58.464-.233 59.114V48.25L-1.278 48.263V49.738C-1.278 52.43-3.17 54.615-6.092 54.673H-25.999V30.247H-9.598C-6.936 30.303-5.706 32.105-5.706 34.324V35.543L-4.662 35.554V22.068L-5.706 22.079V23.299C-5.706 25.455-6.866 27.218-9.374 27.367H-25.999V2.941H-10.986C-1.763 3.065 1.521 7.563 4.248 13.778H5.289Z" fill="#ffffff"/>
<path transform="matrix(1,0,0,-1,634.1562,556.6094)" d="M0 0C.537-3.324 3.382-5.263 6.551-5.263H7.987V-6.222H-11.961V-5.315H-10.555C-8.61-5.312-6.772-3.674-7.037-1.6L-12.086 37.917-30.171 2.236C-30.171 2.236-32.924-3.593-33.585-7.566H-34.524L-57.649 37.043-61.959-1.599C-62.181-3.589-60.387-5.311-58.441-5.314H-57.035V-6.222H-74.844V-5.262H-73.408C-70.183-5.262-67.294-3.252-66.832 .183L-59.403 52.728H-58.46L-33.11 3.965-8.606 52.698H-7.694Z" fill="#4aa4a3"/>
<path transform="matrix(1,0,0,-1,642.9346,562.832)" d="M0 0 .019 .96H1.299C4.87 .96 7.752 3.278 7.825 6.159V51.444C7.752 54.327 4.868 56.649 1.294 56.649H.014L-.005 57.609H21.745V56.649H20.452C16.961 56.649 14.11 54.418 13.94 51.615V6.084C14.054 3.238 16.929 .96 20.457 .96H21.737L21.756 0Z" fill="#4aa4a3"/>
<path transform="matrix(1,0,0,-1,736.166,505.22608)" d="M0 0-.013-.96H-1.609C-4.455-.96-6.779-3.085-6.946-5.764V-46.705C-6.946-52.89-6.035-58.953-6.035-58.953H-6.948L-56.882-11.574V-51.634C-56.828-54.413-54.457-56.651-51.537-56.651H-49.938L-49.927-57.611H-68.075L-68.062-56.651H-66.463C-63.543-56.651-61.174-54.413-61.117-51.634V-10.558C-61.117-4.003-62.037 1.436-62.037 1.436L-61.006 1.388-11.185-45.569V-5.756C-11.357-3.08-13.68-.959-16.522-.959H-18.119L-18.133 .001Z" fill="#4aa4a3"/>
<path transform="matrix(1,0,0,-1,752.5449,559.9209)" d="M0 0H19.141C33.883 0 43.02 9.823 43.02 25.852 43.02 41.938 33.88 51.797 19.141 51.797H0ZM19.093 54.681C38.029 54.681 49.961 43.727 49.961 25.854 49.961 8.018 38.029-2.915 19.093-2.915H-12.932L-12.915-1.955H-11.638C-8.611-1.955-6.336 .397-6.251 3.257V48.561C-6.35 51.591-8.725 53.74-11.738 53.74H-12.913L-12.93 54.691Z" fill="#4aa4a3"/>
<path transform="matrix(1,0,0,-1,852.4777,557.5513)" d="M0 0C2.862-1.96 6.779-1.207 8.709 1.687 10.609 4.539 9.87 8.35 7.042 10.286 5.34 11.451 3.265 11.658 1.457 11.024-.347 10.393-2.345 10.67-3.922 11.75L-19.432 22.369C-20 22.758-20.776 22.613-21.165 22.045-21.554 21.477-21.409 20.701-20.841 20.312L-5.331 9.693C-3.762 8.619-2.764 6.869-2.71 4.969-2.654 3.044-1.711 1.171 0 0" fill="#63beca"/>
<path transform="matrix(1,0,0,-1,804.8822,564.3948)" d="M0 0C-1.318-3.209 .237-6.882 3.471-8.163 6.657-9.426 10.229-7.906 11.531-4.736 12.315-2.828 12.083-.756 11.085 .88 10.091 2.512 9.944 4.524 10.67 6.292L17.812 23.68C18.074 24.316 17.77 25.045 17.133 25.306 16.496 25.568 15.768 25.264 15.506 24.627L8.364 7.24C7.642 5.481 6.14 4.139 4.293 3.689 2.422 3.232 .788 1.918 0 0" fill="#a4c84c"/>
<path transform="matrix(1,0,0,-1,858.3834,529.681)" d="M0 0C2.826 .454 4.742 3.129 4.251 5.957 3.768 8.743 1.16 10.603-1.631 10.155-3.311 9.885-4.67 8.829-5.392 7.423-6.112 6.02-7.465 5.051-9.022 4.801L-24.335 2.342C-24.896 2.252-25.277 1.724-25.187 1.163-25.097 .602-24.569 .221-24.009 .311L-8.696 2.77C-7.148 3.019-5.557 2.539-4.444 1.433-3.317 .313-1.689-.271 0 0" fill="#63beca"/>
<path transform="matrix(1,0,0,-1,806.749,507.287)" d="M0 0C-1.612 1.589-4.214 1.557-5.787-.079-7.337-1.691-7.302-4.224-5.709-5.793-4.75-6.738-3.442-7.11-2.207-6.912-.976-6.714 .275-7.123 1.163-7.998L9.898-16.607C10.218-16.922 10.733-16.918 11.049-16.598 11.364-16.279 11.36-15.764 11.04-15.448L2.305-6.84C1.422-5.969 .983-4.73 1.167-3.503 1.353-2.261 .963-.949 0 0" fill="#ffffff"/>
<path transform="matrix(1,0,0,-1,848.4956,495.7188)" d="M0 0C1.519 3.48-.094 7.538-3.603 9.018-7.06 10.476-11.007 8.898-12.508 5.46-13.411 3.39-13.207 1.117-12.154-.698-11.104-2.508-10.992-4.714-11.83-6.631L-20.063-25.491C-20.365-26.182-20.049-26.986-19.358-27.288-18.668-27.589-17.863-27.274-17.562-26.583L-9.328-7.724C-8.495-5.816-6.819-4.383-4.787-3.934-2.728-3.479-.908-2.08 0 0" fill="#ffffff"/>
<path transform="matrix(1,0,0,-1,785.2866,525.4218)" d="M0 0C-3.463-.201-6.101-3.192-5.857-6.662-5.616-10.08-2.7-12.643 .721-12.445 2.781-12.326 4.548-11.219 5.592-9.612 6.632-8.009 8.383-7.006 10.291-6.896L29.056-5.809C29.744-5.769 30.268-5.179 30.229-4.492 30.189-3.805 29.599-3.28 28.912-3.32L10.147-4.407C8.248-4.517 6.389-3.743 5.183-2.273 3.962-.784 2.07 .12 0 0" fill="#4aa4a3"/>
<path transform="matrix(1,0,0,-1,818.9506,535.6939)" d="M0 0C-2.99 2.947-3.025 7.759-.078 10.749 2.868 13.739 7.681 13.774 10.671 10.828 13.661 7.881 13.696 3.068 10.749 .078 7.803-2.912 2.99-2.947 0 0" fill="#4aa4a3"/>
<path transform="matrix(1,0,0,-1,805.3839,545.6033)" d="M0 0C-1.772 1.747-1.793 4.599-.046 6.372 1.7 8.144 4.553 8.165 6.325 6.418 8.098 4.672 8.118 1.819 6.372 .047 4.625-1.726 1.772-1.747 0 0" fill="#a4c84c"/>
<path transform="matrix(1,0,0,-1,830.2643,557.1965)" d="M0 0C-1.541 1.519-1.559 4-.04 5.541 1.478 7.082 3.959 7.1 5.5 5.581 7.041 4.062 7.06 1.582 5.541 .04 4.022-1.501 1.541-1.519 0 0" fill="#a4c84c"/>
<path transform="matrix(1,0,0,-1,845.4713,514.9741)" d="M0 0C-1.618 1.595-1.637 4.2-.042 5.818 1.552 7.436 4.157 7.455 5.775 5.86 7.394 4.265 7.413 1.661 5.818 .042 4.223-1.576 1.618-1.595 0 0" fill="#63beca"/>
<path transform="matrix(1,0,0,-1,510.6587,582.6553)" d="M0 0C-1.003 .56-1.794 1.332-2.372 2.316-2.949 3.302-3.238 4.408-3.238 5.637-3.238 6.865-2.949 7.972-2.372 8.957-1.794 9.941-1.003 10.714 0 11.273 1.003 11.833 2.131 12.112 3.384 12.112 4.308 12.112 5.159 11.964 5.937 11.666 6.716 11.367 7.379 10.927 7.926 10.343L7.343 9.741C6.321 10.75 5.014 11.255 3.42 11.255 2.35 11.255 1.377 11.012 .502 10.525-.374 10.039-1.061 9.367-1.56 8.51-2.059 7.652-2.308 6.694-2.308 5.637-2.308 4.579-2.059 3.621-1.56 2.764-1.061 1.906-.374 1.234 .502 .748 1.377 .262 2.35 .019 3.42 .019 5.001 .019 6.309 .529 7.343 1.551L7.926 .948C7.379 .364 6.713-.079 5.929-.383 5.145-.687 4.296-.839 3.384-.839 2.131-.839 1.003-.56 0 0" fill="#ffffff"/>
<path transform="matrix(1,0,0,-1,522.7446,575.0576)" d="M0 0C-.535-.298-.964-.718-1.286-1.259-1.608-1.8-1.794-2.411-1.843-3.092H5.454C5.418-2.411 5.235-1.803 4.907-1.268 4.579-.732 4.146-.313 3.612-.009 3.076 .295 2.475 .447 1.806 .447 1.137 .447 .535 .298 0 0M6.33-3.804H-1.86C-1.837-4.545-1.648-5.205-1.295-5.782-.942-6.36-.465-6.808 .137-7.123 .739-7.439 1.417-7.598 2.171-7.598 2.791-7.598 3.365-7.485 3.895-7.261 4.424-7.035 4.864-6.704 5.217-6.266L5.746-6.868C5.333-7.367 4.812-7.75 4.187-8.018 3.56-8.285 2.882-8.419 2.152-8.419 1.204-8.419 .358-8.212-.383-7.799-1.125-7.385-1.706-6.813-2.125-6.084-2.545-5.354-2.755-4.521-2.755-3.585-2.755-2.66-2.557-1.83-2.162-1.095-1.767-.358-1.223 .216-.529 .629 .164 1.043 .942 1.25 1.806 1.25 2.669 1.25 3.444 1.046 4.132 .639 4.818 .23 5.36-.338 5.755-1.067 6.15-1.797 6.349-2.624 6.349-3.548Z" fill="#ffffff"/>
<path transform="matrix(1,0,0,-1,539.4536,574.84768)" d="M0 0C.693-.693 1.04-1.69 1.04-2.992V-8.556H.128V-3.064C.128-1.995-.144-1.18-.685-.62-1.226-.062-1.982 .219-2.955 .219-4.074 .219-4.956-.116-5.601-.784-6.245-1.453-6.567-2.354-6.567-3.484V-8.556H-7.479V.967H-6.604V-1.095C-6.275-.426-5.786 .097-5.136 .475-4.485 .851-3.716 1.04-2.828 1.04-1.636 1.04-.693 .693 0 0" fill="#ffffff"/>
<path transform="matrix(1,0,0,-1,549.0312,582.80178)" d="M0 0C-.231-.219-.52-.386-.866-.501-1.213-.616-1.575-.675-1.952-.675-2.779-.675-3.417-.446-3.867 .01-4.317 .466-4.542 1.101-4.542 1.916V8.137H-6.293V8.921H-4.542V11H-3.63V8.921H-.602V8.137H-3.63V2.007C-3.63 1.387-3.481 .915-3.183 .594-2.885 .271-2.444 .11-1.86 .11-1.265 .11-.772 .286-.383 .639Z" fill="#ffffff"/>
<path transform="matrix(1,0,0,-1,553.8652,574.36428)" d="M0 0C.62 .371 1.374 .557 2.262 .557V-.338L2.043-.319C.984-.319 .157-.65-.438-1.313-1.034-1.977-1.332-2.897-1.332-4.077V-9.039H-2.244V.483H-1.368V-1.597C-1.076-.903-.62-.371 0 0" fill="#ffffff"/>
<path transform="matrix(1,0,0,-1,564.291,582.14456)" d="M0 0C.577 .34 1.033 .814 1.368 1.423 1.702 2.031 1.87 2.724 1.87 3.502 1.87 4.28 1.702 4.974 1.368 5.582 1.033 6.19 .577 6.664 0 7.005-.578 7.345-1.231 7.516-1.961 7.516-2.69 7.516-3.345 7.345-3.922 7.005-4.5 6.664-4.956 6.19-5.29 5.582-5.625 4.974-5.792 4.28-5.792 3.502-5.792 2.724-5.625 2.031-5.29 1.423-4.956 .814-4.5 .34-3.922 0-3.345-.341-2.69-.511-1.961-.511-1.231-.511-.578-.341 0 0M-4.396-.712C-5.12-.298-5.688 .276-6.103 1.013-6.516 1.748-6.723 2.578-6.723 3.502-6.723 4.427-6.516 5.257-6.103 5.992-5.688 6.729-5.12 7.303-4.396 7.716-3.673 8.13-2.861 8.337-1.961 8.337-1.062 8.337-.25 8.13 .475 7.716 1.197 7.303 1.767 6.729 2.18 5.992 2.593 5.257 2.8 4.427 2.8 3.502 2.8 2.578 2.593 1.748 2.18 1.013 1.767 .276 1.197-.298 .475-.712-.25-1.125-1.062-1.332-1.961-1.332-2.861-1.332-3.673-1.125-4.396-.712" fill="#ffffff"/>
<path transform="matrix(1,0,0,-1,585.4053,570.6338)" d="M0 0V-12.77H-.766L-9.467-1.679V-12.77H-10.397V0H-9.613L-.93-11.091V0Z" fill="#ffffff"/>
<path transform="matrix(1,0,0,-1,591.334,575.0576)" d="M0 0C-.535-.298-.964-.718-1.286-1.259-1.608-1.8-1.794-2.411-1.843-3.092H5.454C5.418-2.411 5.235-1.803 4.907-1.268 4.579-.732 4.146-.313 3.612-.009 3.076 .295 2.475 .447 1.806 .447 1.137 .447 .535 .298 0 0M6.33-3.804H-1.86C-1.837-4.545-1.648-5.205-1.295-5.782-.942-6.36-.465-6.808 .137-7.123 .739-7.439 1.417-7.598 2.171-7.598 2.791-7.598 3.365-7.485 3.895-7.261 4.424-7.035 4.864-6.704 5.217-6.266L5.746-6.868C5.333-7.367 4.812-7.75 4.187-8.018 3.56-8.285 2.882-8.419 2.152-8.419 1.204-8.419 .358-8.212-.383-7.799-1.125-7.385-1.706-6.813-2.125-6.084-2.545-5.354-2.755-4.521-2.755-3.585-2.755-2.66-2.557-1.83-2.162-1.095-1.767-.358-1.223 .216-.529 .629 .164 1.043 .942 1.25 1.806 1.25 2.669 1.25 3.444 1.046 4.132 .639 4.818 .23 5.36-.338 5.755-1.067 6.15-1.797 6.349-2.624 6.349-3.548Z" fill="#ffffff"/>
<path transform="matrix(1,0,0,-1,608.9014,573.88088)" d="M0 0V-9.522H-.876V-7.479C-1.192-8.148-1.66-8.668-2.28-9.039-2.9-9.41-3.631-9.596-4.47-9.596-5.71-9.596-6.683-9.249-7.389-8.556-8.094-7.862-8.446-6.865-8.446-5.563V0H-7.534V-5.491C-7.534-6.562-7.261-7.376-6.713-7.936-6.166-8.495-5.394-8.774-4.396-8.774-3.326-8.774-2.479-8.44-1.852-7.771-1.226-7.103-.912-6.202-.912-5.071V0Z" fill="#ffffff"/>
<path transform="matrix(1,0,0,-1,615.0664,574.36428)" d="M0 0C.62 .371 1.374 .557 2.262 .557V-.338L2.043-.319C.984-.319 .157-.65-.438-1.313-1.034-1.977-1.332-2.897-1.332-4.077V-9.039H-2.244V.483H-1.368V-1.597C-1.076-.903-.62-.371 0 0" fill="#ffffff"/>
<path transform="matrix(1,0,0,-1,625.4922,582.14456)" d="M0 0C.577 .34 1.033 .814 1.368 1.423 1.702 2.031 1.87 2.724 1.87 3.502 1.87 4.28 1.702 4.974 1.368 5.582 1.033 6.19 .577 6.664 0 7.005-.578 7.345-1.231 7.516-1.961 7.516-2.69 7.516-3.345 7.345-3.922 7.005-4.5 6.664-4.956 6.19-5.29 5.582-5.625 4.974-5.792 4.28-5.792 3.502-5.792 2.724-5.625 2.031-5.29 1.423-4.956 .814-4.5 .34-3.922 0-3.345-.341-2.69-.511-1.961-.511-1.231-.511-.578-.341 0 0M-4.396-.712C-5.12-.298-5.688 .276-6.103 1.013-6.516 1.748-6.723 2.578-6.723 3.502-6.723 4.427-6.516 5.257-6.103 5.992-5.688 6.729-5.12 7.303-4.396 7.716-3.673 8.13-2.861 8.337-1.961 8.337-1.062 8.337-.25 8.13 .475 7.716 1.197 7.303 1.767 6.729 2.18 5.992 2.593 5.257 2.8 4.427 2.8 3.502 2.8 2.578 2.593 1.748 2.18 1.013 1.767 .276 1.197-.298 .475-.712-.25-1.125-1.062-1.332-1.961-1.332-2.861-1.332-3.673-1.125-4.396-.712" fill="#ffffff"/>
<path transform="matrix(1,0,0,-1,637.8691,582.14456)" d="M0 0C.583 .34 1.042 .814 1.377 1.423 1.711 2.031 1.879 2.724 1.879 3.502 1.879 4.28 1.711 4.974 1.377 5.582 1.042 6.19 .583 6.664 0 7.005-.584 7.345-1.241 7.516-1.971 7.516-2.7 7.516-3.354 7.345-3.932 7.005-4.51 6.664-4.966 6.19-5.3 5.582-5.635 4.974-5.802 4.28-5.802 3.502-5.802 2.724-5.635 2.031-5.3 1.423-4.966 .814-4.51 .34-3.932 0-3.354-.341-2.7-.511-1.971-.511-1.241-.511-.584-.341 0 0M.492 7.716C1.21 7.303 1.771 6.731 2.18 6.002 2.587 5.271 2.791 4.438 2.791 3.502 2.791 2.565 2.587 1.729 2.18 .994 1.771 .258 1.21-.313 .492-.721-.226-1.128-1.028-1.332-1.916-1.332-2.755-1.332-3.516-1.134-4.196-.739-4.877-.344-5.406 .207-5.783 .912V-4.798H-6.695V8.264H-5.819V6.02C-5.442 6.749-4.911 7.317-4.224 7.726-3.536 8.133-2.768 8.337-1.916 8.337-1.028 8.337-.226 8.13 .492 7.716" fill="#ffffff"/>
<path transform="matrix(1,0,0,-1,643.7607,583.1299)" d="M0 0C-.693 .231-1.234 .522-1.623 .876L-1.204 1.605C-.814 1.277-.313 1.004 .301 .784 .915 .565 1.557 .456 2.226 .456 3.187 .456 3.895 .614 4.351 .931 4.807 1.247 5.035 1.685 5.035 2.244 5.035 2.646 4.91 2.961 4.661 3.192 4.412 3.424 4.104 3.594 3.74 3.703 3.375 3.813 2.87 3.928 2.226 4.05 1.472 4.184 .863 4.329 .401 4.487-.061 4.646-.456 4.901-.784 5.254-1.112 5.606-1.276 6.093-1.276 6.713-1.276 7.467-.964 8.091-.337 8.583 .289 9.075 1.18 9.322 2.335 9.322 2.943 9.322 3.545 9.236 4.142 9.066 4.737 8.896 5.224 8.671 5.601 8.392L5.181 7.662C4.792 7.941 4.348 8.154 3.85 8.301 3.351 8.446 2.84 8.52 2.317 8.52 1.429 8.52 .76 8.355 .311 8.026-.14 7.698-.364 7.267-.364 6.731-.364 6.306-.237 5.975 .019 5.737 .273 5.5 .587 5.324 .958 5.208 1.329 5.093 1.849 4.968 2.518 4.834 3.259 4.7 3.858 4.558 4.314 4.405 4.771 4.254 5.156 4.007 5.473 3.667 5.789 3.326 5.947 2.858 5.947 2.263 5.947 1.472 5.619 .839 4.962 .365 4.306-.109 3.381-.347 2.189-.347 1.423-.347 .693-.231 0 0" fill="#ffffff"/>
<path transform="matrix(1,0,0,-1,0,1080)" d="M652.316 506.119H653.22799V496.597H652.316ZM652.243 508.646C652.098 508.785 652.024 508.959 652.024 509.165 652.024 509.372 652.098 509.549 652.243 509.694 652.39 509.841 652.565 509.913 652.772 509.913 652.979 509.913 653.155 509.843 653.302 509.703 653.447 509.563 653.521 509.391 653.521 509.184 653.521 508.977 653.447 508.801 653.302 508.654 653.155 508.509 652.979 508.436 652.772 508.436 652.565 508.436 652.39 508.506 652.243 508.646" fill="#ffffff"/>
<path transform="matrix(1,0,0,-1,658.4268,582.85647)" d="M0 0C-.729 .414-1.301 .988-1.715 1.725-2.128 2.46-2.335 3.29-2.335 4.214-2.335 5.15-2.128 5.986-1.715 6.723-1.301 7.458-.729 8.029 0 8.438 .73 8.845 1.557 9.049 2.481 9.049 3.247 9.049 3.943 8.899 4.57 8.602 5.196 8.304 5.704 7.869 6.093 7.297L5.418 6.805C5.077 7.279 4.655 7.635 4.15 7.872 3.646 8.109 3.089 8.228 2.481 8.228 1.739 8.228 1.073 8.061 .483 7.726-.106 7.392-.568 6.92-.902 6.312-1.237 5.704-1.404 5.005-1.404 4.214-1.404 3.424-1.237 2.725-.902 2.116-.568 1.508-.106 1.037 .483 .703 1.073 .368 1.739 .201 2.481 .201 3.089 .201 3.646 .319 4.15 .557 4.655 .794 5.077 1.149 5.418 1.624L6.093 1.132C5.704 .56 5.196 .125 4.57-.173 3.943-.471 3.247-.62 2.481-.62 1.557-.62 .73-.413 0 0" fill="#ffffff"/>
<path transform="matrix(1,0,0,-1,672.8291,582.14456)" d="M0 0C.577 .34 1.033 .814 1.368 1.423 1.702 2.031 1.87 2.724 1.87 3.502 1.87 4.28 1.702 4.974 1.368 5.582 1.033 6.19 .577 6.664 0 7.005-.578 7.345-1.231 7.516-1.961 7.516-2.69 7.516-3.345 7.345-3.922 7.005-4.5 6.664-4.956 6.19-5.29 5.582-5.625 4.974-5.792 4.28-5.792 3.502-5.792 2.724-5.625 2.031-5.29 1.423-4.956 .814-4.5 .34-3.922 0-3.345-.341-2.69-.511-1.961-.511-1.231-.511-.578-.341 0 0M-4.396-.712C-5.12-.298-5.688 .276-6.103 1.013-6.516 1.748-6.723 2.578-6.723 3.502-6.723 4.427-6.516 5.257-6.103 5.992-5.688 6.729-5.12 7.303-4.396 7.716-3.673 8.13-2.861 8.337-1.961 8.337-1.062 8.337-.25 8.13 .475 7.716 1.197 7.303 1.767 6.729 2.18 5.992 2.593 5.257 2.8 4.427 2.8 3.502 2.8 2.578 2.593 1.748 2.18 1.013 1.767 .276 1.197-.298 .475-.712-.25-1.125-1.062-1.332-1.961-1.332-2.861-1.332-3.673-1.125-4.396-.712" fill="#ffffff"/>
<path transform="matrix(1,0,0,-1,0,1080)" d="M678.512 510.132H679.424V496.597H678.512Z" fill="#ffffff"/>
<path transform="matrix(1,0,0,-1,688.5449,570.17776)" d="M0 0H1.312L-1.551-2.152H-2.536ZM.465-11.967C1.042-11.627 1.498-11.152 1.833-10.544 2.167-9.936 2.335-9.243 2.335-8.465 2.335-7.687 2.167-6.993 1.833-6.385 1.498-5.776 1.042-5.303 .465-4.962-.113-4.622-.767-4.451-1.496-4.451-2.226-4.451-2.88-4.622-3.457-4.962-4.035-5.303-4.491-5.776-4.825-6.385-5.16-6.993-5.327-7.687-5.327-8.465-5.327-9.243-5.16-9.936-4.825-10.544-4.491-11.152-4.035-11.627-3.457-11.967-2.88-12.308-2.226-12.478-1.496-12.478-.767-12.478-.113-12.308 .465-11.967M-3.932-12.679C-4.655-12.265-5.224-11.69-5.638-10.954-6.051-10.219-6.258-9.389-6.258-8.465-6.258-7.54-6.051-6.71-5.638-5.975-5.224-5.238-4.655-4.664-3.932-4.251-3.208-3.837-2.396-3.63-1.496-3.63-.597-3.63 .215-3.837 .939-4.251 1.662-4.664 2.231-5.238 2.645-5.975 3.058-6.71 3.265-7.54 3.265-8.465 3.265-9.389 3.058-10.219 2.645-10.954 2.231-11.69 1.662-12.265 .939-12.679 .215-13.092-.597-13.299-1.496-13.299-2.396-13.299-3.208-13.092-3.932-12.679" fill="#ffffff"/>
<path transform="matrix(1,0,0,-1,700.4756,581.752)" d="M0 0C.596 .321 1.061 .771 1.396 1.35 1.729 1.927 1.896 2.587 1.896 3.329 1.896 4.07 1.729 4.728 1.396 5.299 1.061 5.87 .596 6.317 0 6.64-.597 6.962-1.266 7.123-2.007 7.123-2.749 7.123-3.415 6.962-4.005 6.64-4.595 6.317-5.057 5.87-5.391 5.299-5.726 4.728-5.893 4.07-5.893 3.329-5.893 2.587-5.726 1.927-5.391 1.35-5.057 .771-4.595 .321-4.005 0-3.415-.323-2.749-.483-2.007-.483-1.266-.483-.597-.323 0 0M2.791 7.871V-.63C2.791-2.211 2.407-3.378 1.642-4.132 .875-4.886-.28-5.264-1.824-5.264-2.7-5.264-3.527-5.129-4.306-4.862-5.084-4.595-5.71-4.224-6.185-3.749L-5.692-3.056C-5.218-3.494-4.646-3.834-3.978-4.077-3.309-4.32-2.597-4.442-1.843-4.442-.578-4.442 .358-4.142 .967-3.539 1.574-2.938 1.879-2.004 1.879-.739V.866C1.489 .173 .948-.362 .255-.739-.438-1.116-1.217-1.305-2.08-1.305-2.968-1.305-3.773-1.107-4.497-.712-5.221-.316-5.789 .233-6.203 .939-6.616 1.645-6.823 2.44-6.823 3.329-6.823 4.216-6.616 5.013-6.203 5.719-5.789 6.424-5.221 6.971-4.497 7.36-3.773 7.749-2.968 7.944-2.08 7.944-1.204 7.944-.414 7.749 .291 7.36 .997 6.971 1.538 6.424 1.915 5.719V7.871Z" fill="#ffffff"/>
<path transform="matrix(1,0,0,-1,0,1080)" d="M707.187 506.119H708.099V496.597H707.187ZM707.114 508.646C706.969 508.785 706.896 508.959 706.896 509.165 706.896 509.372 706.969 509.549 707.114 509.694 707.261 509.841 707.437 509.913 707.644 509.913 707.851 509.913 708.026 509.843 708.173 509.703 708.318 509.563 708.392 509.391 708.392 509.184 708.392 508.977 708.318 508.801 708.173 508.654 708.026 508.509 707.851 508.436 707.644 508.436 707.437 508.436 707.261 508.506 707.114 508.646" fill="#ffffff"/>
<path transform="matrix(1,0,0,-1,713.2979,582.85647)" d="M0 0C-.729 .414-1.301 .988-1.715 1.725-2.128 2.46-2.335 3.29-2.335 4.214-2.335 5.15-2.128 5.986-1.715 6.723-1.301 7.458-.729 8.029 0 8.438 .73 8.845 1.557 9.049 2.481 9.049 3.247 9.049 3.943 8.899 4.57 8.602 5.196 8.304 5.704 7.869 6.093 7.297L5.418 6.805C5.077 7.279 4.655 7.635 4.15 7.872 3.646 8.109 3.089 8.228 2.481 8.228 1.739 8.228 1.073 8.061 .483 7.726-.106 7.392-.568 6.92-.902 6.312-1.237 5.704-1.404 5.005-1.404 4.214-1.404 3.424-1.237 2.725-.902 2.116-.568 1.508-.106 1.037 .483 .703 1.073 .368 1.739 .201 2.481 .201 3.089 .201 3.646 .319 4.15 .557 4.655 .794 5.077 1.149 5.418 1.624L6.093 1.132C5.704 .56 5.196 .125 4.57-.173 3.943-.471 3.247-.62 2.481-.62 1.557-.62 .73-.413 0 0" fill="#ffffff"/>
<path transform="matrix(1,0,0,-1,727.7012,582.14456)" d="M0 0C.577 .34 1.033 .814 1.368 1.423 1.702 2.031 1.87 2.724 1.87 3.502 1.87 4.28 1.702 4.974 1.368 5.582 1.033 6.19 .577 6.664 0 7.005-.578 7.345-1.231 7.516-1.961 7.516-2.69 7.516-3.345 7.345-3.922 7.005-4.5 6.664-4.956 6.19-5.29 5.582-5.625 4.974-5.792 4.28-5.792 3.502-5.792 2.724-5.625 2.031-5.29 1.423-4.956 .814-4.5 .34-3.922 0-3.345-.341-2.69-.511-1.961-.511-1.231-.511-.578-.341 0 0M-4.396-.712C-5.12-.298-5.688 .276-6.103 1.013-6.516 1.748-6.723 2.578-6.723 3.502-6.723 4.427-6.516 5.257-6.103 5.992-5.688 6.729-5.12 7.303-4.396 7.716-3.673 8.13-2.861 8.337-1.961 8.337-1.062 8.337-.25 8.13 .475 7.716 1.197 7.303 1.767 6.729 2.18 5.992 2.593 5.257 2.8 4.427 2.8 3.502 2.8 2.578 2.593 1.748 2.18 1.013 1.767 .276 1.197-.298 .475-.712-.25-1.125-1.062-1.332-1.961-1.332-2.861-1.332-3.673-1.125-4.396-.712" fill="#ffffff"/>
<path transform="matrix(1,0,0,-1,740.4336,582.6553)" d="M0 0C-1.003 .56-1.794 1.332-2.371 2.316-2.949 3.302-3.238 4.408-3.238 5.637-3.238 6.865-2.949 7.972-2.371 8.957-1.794 9.941-1.003 10.714 0 11.273 1.003 11.833 2.131 12.112 3.384 12.112 4.308 12.112 5.159 11.964 5.937 11.666 6.716 11.367 7.379 10.927 7.926 10.343L7.343 9.741C6.321 10.75 5.014 11.255 3.421 11.255 2.351 11.255 1.377 11.012 .502 10.525-.374 10.039-1.062 9.367-1.56 8.51-2.059 7.652-2.308 6.694-2.308 5.637-2.308 4.579-2.059 3.621-1.56 2.764-1.062 1.906-.374 1.234 .502 .748 1.377 .262 2.351 .019 3.421 .019 5.001 .019 6.309 .529 7.343 1.551L7.926 .948C7.379 .364 6.713-.079 5.929-.383 5.145-.687 4.296-.839 3.384-.839 2.131-.839 1.003-.56 0 0" fill="#ffffff"/>
<path transform="matrix(1,0,0,-1,0,1080)" d="M751.241 510.132H752.153V496.597H751.241Z" fill="#ffffff"/>
<path transform="matrix(1,0,0,-1,0,1080)" d="M756.057 506.119H756.969V496.597H756.057ZM758.009 509.822H759.322L756.458 507.67H755.473Z" fill="#ffffff"/>
<path transform="matrix(1,0,0,-1,768.3525,574.84768)" d="M0 0C.693-.693 1.04-1.69 1.04-2.992V-8.556H.128V-3.064C.128-1.995-.144-1.18-.685-.62-1.226-.062-1.982 .219-2.955 .219-4.074 .219-4.956-.116-5.601-.784-6.245-1.453-6.567-2.354-6.567-3.484V-8.556H-7.479V.967H-6.604V-1.095C-6.275-.426-5.786 .097-5.136 .475-4.485 .851-3.716 1.04-2.828 1.04-1.636 1.04-.693 .693 0 0" fill="#ffffff"/>
<path transform="matrix(1,0,0,-1,0,1080)" d="M773.204 506.119H774.11599V496.597H773.204ZM773.131 508.646C772.985 508.785 772.912 508.959 772.912 509.165 772.912 509.372 772.985 509.549 773.131 509.694 773.277 509.841 773.453 509.913 773.66 509.913 773.867 509.913 774.043 509.843 774.189 509.703 774.335 509.563 774.408 509.391 774.408 509.184 774.408 508.977 774.335 508.801 774.189 508.654 774.043 508.509 773.867 508.436 773.66 508.436 773.453 508.436 773.277 508.506 773.131 508.646" fill="#ffffff"/>
<path transform="matrix(1,0,0,-1,779.3145,582.85647)" d="M0 0C-.729 .414-1.301 .988-1.715 1.725-2.128 2.46-2.335 3.29-2.335 4.214-2.335 5.15-2.128 5.986-1.715 6.723-1.301 7.458-.729 8.029 0 8.438 .73 8.845 1.557 9.049 2.481 9.049 3.247 9.049 3.943 8.899 4.57 8.602 5.196 8.304 5.704 7.869 6.093 7.297L5.418 6.805C5.077 7.279 4.655 7.635 4.15 7.872 3.646 8.109 3.089 8.228 2.481 8.228 1.739 8.228 1.073 8.061 .483 7.726-.106 7.392-.568 6.92-.902 6.312-1.237 5.704-1.404 5.005-1.404 4.214-1.404 3.424-1.237 2.725-.902 2.116-.568 1.508-.106 1.037 .483 .703 1.073 .368 1.739 .201 2.481 .201 3.089 .201 3.646 .319 4.15 .557 4.655 .794 5.077 1.149 5.418 1.624L6.093 1.132C5.704 .56 5.196 .125 4.57-.173 3.943-.471 3.247-.62 2.481-.62 1.557-.62 .73-.413 0 0" fill="#ffffff"/>
<path transform="matrix(1,0,0,-1,793.7178,582.14456)" d="M0 0C.577 .34 1.033 .814 1.368 1.423 1.702 2.031 1.87 2.724 1.87 3.502 1.87 4.28 1.702 4.974 1.368 5.582 1.033 6.19 .577 6.664 0 7.005-.578 7.345-1.231 7.516-1.961 7.516-2.69 7.516-3.345 7.345-3.922 7.005-4.5 6.664-4.956 6.19-5.29 5.582-5.625 4.974-5.792 4.28-5.792 3.502-5.792 2.724-5.625 2.031-5.29 1.423-4.956 .814-4.5 .34-3.922 0-3.345-.341-2.69-.511-1.961-.511-1.231-.511-.578-.341 0 0M-4.396-.712C-5.12-.298-5.688 .276-6.103 1.013-6.516 1.748-6.723 2.578-6.723 3.502-6.723 4.427-6.516 5.257-6.103 5.992-5.688 6.729-5.12 7.303-4.396 7.716-3.673 8.13-2.861 8.337-1.961 8.337-1.062 8.337-.25 8.13 .475 7.716 1.197 7.303 1.767 6.729 2.18 5.992 2.593 5.257 2.8 4.427 2.8 3.502 2.8 2.578 2.593 1.748 2.18 1.013 1.767 .276 1.197-.298 .475-.712-.25-1.125-1.062-1.332-1.961-1.332-2.861-1.332-3.673-1.125-4.396-.712" fill="#ffffff"/>
</g>
</g>
</g>
</svg>
