<svg xmlns="http://www.w3.org/2000/svg" viewBox="0 0 64 64">
  <defs>
    <linearGradient id="g" x1="0" y1="0" x2="1" y2="1">
      <stop offset="0" stop-color="#1B4A72"/>
      <stop offset="1" stop-color="#2FA3B4"/>
    </linearGradient>
  </defs>
  <rect width="64" height="64" rx="14" fill="url(#g)"/>
  <g transform="translate(8 8) scale(2)" fill="none" stroke="#FFFFFF" stroke-width="2" stroke-linecap="round" stroke-linejoin="round">
    <path d="M12 2a7 7 0 0 0-7 7c0 2 1 3 1 5v3a2 2 0 0 0 2 2h1"/>
    <path d="M12 2a7 7 0 0 1 7 7c0 2-1 3-1 5v3a2 2 0 0 1-2 2h-1"/>
    <path d="M9 22h6"/>
  </g>
</svg>
